<svg xmlns="http://www.w3.org/2000/svg" viewBox="0 0 1024 1024"><defs><linearGradient id="bg" x1="0" y1="0" x2="0" y2="1"><stop offset="0" stop-color="#171b24"/><stop offset="1" stop-color="#0b0d12"/></linearGradient><linearGradient id="pr" x1="0.1" y1="0" x2="0.9" y2="1"><stop offset="0" stop-color="#9b7bff"/><stop offset="0.5" stop-color="#4f8cff"/><stop offset="1" stop-color="#37d4e6"/></linearGradient><linearGradient id="pr2" x1="0.9" y1="0" x2="0.1" y2="1"><stop offset="0" stop-color="#ff8ad1"/><stop offset="0.55" stop-color="#7c6bff"/><stop offset="1" stop-color="#3a8bff"/></linearGradient><radialGradient id="iris" cx="0.5" cy="0.45" r="0.6"><stop offset="0" stop-color="#5cdcff"/><stop offset="0.55" stop-color="#5a7dff"/><stop offset="1" stop-color="#8a5cff"/></radialGradient></defs>
<g transform="translate(512 512) scale(1.54) translate(-512 -513)" stroke="rgba(255,255,255,0.18)" stroke-width="1.8" stroke-linejoin="round">
<polygon points="318,214 444,350 512,336 580,350 706,214 732,418 756,566 686,724 512,812 338,724 268,566 292,418" fill="url(#bg)"/>
<polygon points="292,418 318,214 444,350" fill="url(#pr)" opacity="1"/>
<polygon points="318,214 444,350 380,300" fill="url(#pr2)" opacity="0.55"/>
<polygon points="732,418 706,214 580,350" fill="url(#pr2)" opacity="1"/>
<polygon points="706,214 580,350 644,300" fill="url(#pr)" opacity="0.55"/>
<polygon points="444,350 512,336 512,560" fill="url(#pr)" opacity="0.72"/>
<polygon points="580,350 512,336 512,560" fill="url(#pr2)" opacity="0.62"/>
<polygon points="292,418 444,350 512,560" fill="url(#pr2)" opacity="0.82"/>
<polygon points="268,566 292,418 512,560" fill="url(#pr)" opacity="0.66"/>
<polygon points="732,418 580,350 512,560" fill="url(#pr)" opacity="0.8"/>
<polygon points="756,566 732,418 512,560" fill="url(#pr2)" opacity="0.64"/>
<polygon points="268,566 512,560 512,650" fill="url(#pr)" opacity="0.42"/>
<polygon points="338,724 268,566 512,650" fill="url(#pr2)" opacity="0.74"/>
<polygon points="512,812 338,724 512,650" fill="url(#pr)" opacity="0.6"/>
<polygon points="756,566 512,560 512,650" fill="url(#pr2)" opacity="0.4"/>
<polygon points="686,724 756,566 512,650" fill="url(#pr)" opacity="0.72"/>
<polygon points="512,812 686,724 512,650" fill="url(#pr2)" opacity="0.58"/>
<g transform="translate(512 528) scale(1.16) translate(-512 -513)"><ellipse cx="438" cy="530" rx="12" ry="40" fill="#0b0d12"/><ellipse cx="586" cy="530" rx="12" ry="40" fill="#0b0d12"/></g></g>
</svg>
